<?xml version="1.0" encoding="UTF-8"?>
<svg width="18px" height="18px" viewBox="0 0 18 18" version="1.1" xmlns="http://www.w3.org/2000/svg" xmlns:xlink="http://www.w3.org/1999/xlink">
    <title>language</title>
    <g id="language" stroke="none" stroke-width="1" fill="none" fill-rule="evenodd">
        <path d="M17.2929828,5.49599842 C16.8422586,4.42620543 16.1870039,3.45470285 15.3639905,2.63600988 C13.6774021,0.946326873 11.3874004,-0.00220305963 9.00002594,1.02054735e-05 C6.38427809,-0.00393146751 3.89712477,1.1340964 2.19004333,3.11600797 C0.775078215,4.74948146 -0.00258859529,6.83888397 2.59388146e-05,8.99998437 C-0.00571994161,11.3880715 0.943352386,13.6793827 2.63604153,15.3639589 C3.45514391,16.1864768 4.42654308,16.8416618 5.49603007,17.2929511 C6.60476355,17.7613146 7.79641681,18.0017538 9.00002594,17.9999585 C11.6018861,18.0038664 14.0772559,16.8778359 15.7839888,14.9139607 C17.2154726,13.2766428 18.0030311,11.1748283 17.99999,8.99998437 C18.0017855,7.79638516 17.7613463,6.6047319 17.2929828,5.49599842 L17.2929828,5.49599842 Z M6.00902801,1.8840129 C5.68488627,2.36305022 5.41205182,2.87486621 5.19503127,3.41100678 C4.85787554,3.27731623 4.52925709,3.12302587 4.21103523,2.94900864 C4.75937545,2.51423037 5.36423655,2.15595613 6.00902801,1.8840129 L6.00902801,1.8840129 Z M4.77003298,4.6300019 C4.42722621,5.84463373 4.2337997,7.09653311 4.1940353,8.35798695 L1.31204685,8.35798695 C1.44636811,6.69231725 2.12289218,5.11657115 3.23803912,3.87200494 C3.71703721,4.16600376 4.22803514,4.41900275 4.77103298,4.6300019 L4.77003298,4.6300019 Z M1.31004685,9.64398179 L4.1940353,9.64398179 C4.24203511,10.9759765 4.44103431,12.2489713 4.77403295,13.3909668 C4.23603512,13.6009659 3.72403716,13.8529649 3.24703909,14.1439637 C2.12716085,12.8959222 1.44713069,11.3152736 1.31104685,9.64398179 L1.31004685,9.64398179 Z M4.22603516,15.0619601 C4.53603392,14.8929607 4.86103261,14.7409613 5.20203125,14.6059619 C5.28603091,14.8089611 5.37703054,15.0079603 5.47303017,15.1989595 C5.6400295,15.5319582 5.81902878,15.8389569 6.01002801,16.1169558 C5.37014649,15.8480703 4.76994617,15.4931312 4.22603516,15.0619601 L4.22603516,15.0619601 Z M8.3560186,16.571954 C8.15087455,16.4788089 7.96024438,16.3565496 7.79002087,16.2089555 C7.36602257,15.8489569 6.96202419,15.3009591 6.62202555,14.6219618 C6.55573952,14.4876596 6.49305077,14.3516117 6.4340263,14.2139635 C7.06443788,14.0594229 7.70788796,13.9640102 8.3560186,13.9289646 L8.3560186,16.572954 L8.3560186,16.571954 Z M6.00002805,12.9989683 C5.69223009,11.9056906 5.51796219,10.779161 5.48103012,9.64398179 L8.3560186,9.64398179 L8.3560186,12.6439698 C7.54502184,12.6839696 6.75302502,12.8039691 6.00002805,12.9989683 L6.00002805,12.9989683 Z M8.3560186,8.35898694 L5.48203012,8.35898694 C5.52902994,7.16899171 5.70302923,6.03399626 5.99502807,5.02300031 C6.76828966,5.22125591 7.55967353,5.34053307 8.3570186,5.37899889 L8.3570186,8.35898694 L8.3560186,8.35898694 Z M8.3560186,4.09100406 C7.70509085,4.05627474 7.05889423,3.96018229 6.42602633,3.80400521 C6.48802608,3.65700581 6.55402582,3.51400638 6.62202555,3.37800691 C6.96202419,2.69900963 7.36602256,2.15101184 7.79002087,1.79101329 C7.97602013,1.63201393 8.16501938,1.51101441 8.3560186,1.42701474 L8.3560186,4.09000406 L8.3560186,4.09100406 Z M13.7699969,2.93800868 C13.4629981,3.108008 13.1369994,3.26400737 12.7960008,3.40000682 C12.7114644,3.19811505 12.6204171,2.99901166 12.5230019,2.80300922 C12.365473,2.48494636 12.1860419,2.17820942 11.986004,1.8850129 C12.6260015,2.15301182 13.2239991,2.50601041 13.7699969,2.93800868 L13.7699969,2.93800868 Z M10.2100112,1.79201328 C10.6340095,2.15201184 11.0380079,2.70000965 11.3780065,3.37900691 C11.4466733,3.5164479 11.5113665,3.65583849 11.5720057,3.79700524 C10.9500082,3.95400461 10.3050108,4.05000422 9.64601342,4.09000406 L9.64601342,1.42801474 C9.83501266,1.51301439 10.0240119,1.63301391 10.2100112,1.79201328 Z M9.64401344,5.37599891 C10.4408708,5.33389874 11.2314937,5.21195519 12.004004,5.01200036 C12.3084984,6.10245819 12.4813938,7.22543899 12.5190019,8.35698695 L9.64301344,8.35698695 L9.64301344,5.37599891 L9.64401344,5.37599891 Z M9.64401344,9.64298179 L12.5190019,9.64298179 C12.4818886,10.7808422 12.3072881,11.9100373 11.999004,13.0059683 C11.2283387,12.8056343 10.4392674,12.6843418 9.64401344,12.6439698 L9.64401344,9.64298179 L9.64401344,9.64298179 Z M11.3780065,14.6229618 C11.0380078,15.3019591 10.6340095,15.8499569 10.2100112,16.2099555 C10.0240119,16.3689548 9.83501266,16.4899543 9.64401344,16.573954 L9.64401344,13.9319646 C10.3010108,13.9699644 10.9440082,14.068964 11.5620057,14.2229634 C11.504006,14.3599629 11.4420062,14.4929624 11.3780065,14.6229618 Z M11.992004,16.1159558 C12.1820033,15.8379569 12.3600025,15.5309582 12.5290019,15.1979595 C12.6210015,15.0109603 12.7090012,14.817961 12.7940008,14.6189618 C13.1309994,14.7539613 13.4539981,14.9059607 13.7599969,15.07496 C13.2189242,15.497806 12.6244728,15.8474833 11.992004,16.1149558 L11.992004,16.1159558 Z M13.2219991,13.4039667 C13.5569978,12.2579713 13.7579969,10.9789764 13.8059967,9.64298179 L16.6889852,9.64298179 C16.5527169,11.3210513 15.8673944,12.9074852 14.738993,14.1569637 C14.2564741,13.8618094 13.7488387,13.6098322 13.2219991,13.4039667 Z M13.2259991,4.61400197 C13.7551041,4.40652578 14.2647654,4.15253174 14.748993,3.855005 C15.8714502,5.10238124 16.5524434,6.68433749 16.6869852,8.35698695 L13.8069967,8.35698695 C13.7677261,7.09053301 13.5725907,5.83373982 13.2259991,4.61500195 L13.2259991,4.61400197 Z" id="Shape" fill="#FFFFFF" fill-rule="nonzero"></path>
    </g>
</svg>