<?xml version="1.0" encoding="UTF-8"?>
<svg width="20px" height="20px" viewBox="0 0 20 20" version="1.1" xmlns="http://www.w3.org/2000/svg" xmlns:xlink="http://www.w3.org/1999/xlink">
    <title>FaceBook</title>
    <g id="Page-1" stroke="none" stroke-width="1" fill="none" fill-rule="evenodd">
        <g id="Artboard" transform="translate(-24.000000, -30.000000)" fill="#FFFFFF" fill-rule="nonzero">
            <g id="FaceBook" transform="translate(24.000000, 30.000000)">
                <path d="M9.97650017,0.0100772939 C4.46606965,0.0100772939 0.00548537234,4.47078624 0.00548537234,9.98109209 C0.00548537234,15.4913979 4.46619432,19.9521069 9.97650017,19.9521069 C15.4869307,19.9521069 19.947515,15.4913979 19.947515,9.98109209 C19.947515,4.47066157 15.486806,0.0100772939 9.97650017,0.0100772939 Z M12.652323,9.92875249 L10.9212724,9.92875249 L10.9212724,16.1736827 L8.34979638,16.1736827 L8.34979638,9.92875249 L7.0376496,9.92875249 L7.0376496,7.7774892 L8.34979638,7.7774892 L8.34979638,6.46534242 C8.34979638,4.73429189 9.08456616,3.68440409 11.1307347,3.68440409 L12.8617852,3.68440409 L12.8617852,5.83566739 L11.8119806,5.83566739 C11.0252036,5.83566739 10.9727601,6.15082696 10.9727601,6.6748878 L10.9727601,7.72469249 L12.9139586,7.72469249 L12.6516996,9.92883561 L12.652323,9.92875249 Z" id="Shape"></path>
            </g>
        </g>
    </g>
</svg>