<?xml version="1.0" encoding="UTF-8"?>
<svg width="20px" height="20px" viewBox="0 0 20 20" version="1.1" xmlns="http://www.w3.org/2000/svg" xmlns:xlink="http://www.w3.org/1999/xlink">
    <title>JamIcons instagram circle</title>
    <g id="Page-1" stroke="none" stroke-width="1" fill="none" fill-rule="evenodd">
        <g id="Artboard" transform="translate(-77.000000, -30.000000)" fill="#FFFFFF" fill-rule="nonzero">
            <g id="JamIcons-instagram-circle" transform="translate(77.000000, 30.000000)">
                <path d="M10,0 C4.46875,0 0,4.46875 0,10 C0,15.53125 4.46875,20 10,20 C15.53125,20 20,15.53125 20,10 C20,4.46875 15.53125,0 10,0 Z M16.25,12.53125 C16.25,14.59375 14.59375,16.25 12.53125,16.25 L7.46875,16.25 C5.4375,16.25 3.8125,14.625 3.75,12.625 L3.75,7.375 C3.8125,5.34375 5.46875,3.75 7.46875,3.75 L12.53125,3.75 C14.59375,3.75 16.25,5.40625 16.25,7.46875 L16.25,12.53125 Z M12.53125,5 L7.46875,5 C6.09375,5 5,6.09375 5,7.46875 L5,12.53125 C5,13.90625 6.09375,15 7.46875,15 L12.53125,15 C13.90625,15 15,13.90625 15,12.53125 L15,7.46875 C15,6.125 13.875,5 12.53125,5 L12.53125,5 Z M10.15625,13.4375 C8.34375,13.4375 6.875,11.96875 6.875,10.15625 C6.875,8.34375 8.34375,6.875 10.15625,6.875 C11.96875,6.875 13.4375,8.34375 13.4375,10.15625 C13.4375,11.96875 11.96875,13.4375 10.15625,13.4375 Z M13.28125,7.5 C12.84375,7.5 12.5,7.15625 12.5,6.71875 C12.5,6.28125 12.84375,5.9375 13.28125,5.9375 C13.71875,5.9375 14.0625,6.28125 14.0625,6.71875 C14.0625,7.15625 13.71875,7.5 13.28125,7.5 Z" id="Shape"></path>
                <path d="M8.15625,10.15625 C8.15625,11.2608195 9.0516805,12.15625 10.15625,12.15625 C11.2608195,12.15625 12.15625,11.2608195 12.15625,10.15625 C12.15625,9.0516805 11.2608195,8.15625 10.15625,8.15625 C9.0516805,8.15625 8.15625,9.0516805 8.15625,10.15625 L8.15625,10.15625 Z" id="Path"></path>
            </g>
        </g>
    </g>
</svg>