<?xml version="1.0" encoding="UTF-8"?>
<svg width="20px" height="20px" viewBox="0 0 20 20" version="1.1" xmlns="http://www.w3.org/2000/svg" xmlns:xlink="http://www.w3.org/1999/xlink">
    <title>twitter</title>
    <g id="Page-1" stroke="none" stroke-width="1" fill="none" fill-rule="evenodd">
        <g id="Artboard" transform="translate(-50.000000, -30.000000)" fill="#FFFFFF" fill-rule="nonzero">
            <g id="twitter" transform="translate(50.000000, 30.000000)">
                <path d="M9.99006503,0.0218569364 C4.47561416,0.0218569364 0.00596098266,4.49151012 0.00596098266,10.005961 C0.00596098266,15.5204118 4.47561416,19.990065 9.99006503,19.990065 C15.5045159,19.990065 19.9741691,15.5204118 19.9741691,10.005961 C19.9741691,4.49151012 15.5045159,0.0218569364 9.99006503,0.0218569364 Z M15.0680997,8.09266618 C15.0117413,12.3542269 12.2863078,15.273302 8.21838873,15.456828 C6.54064306,15.5334176 5.32532514,14.9915101 4.26752168,14.3195448 C5.50740607,14.5175217 7.04497832,14.0218569 7.86723266,13.3180997 C6.65191474,13.1996026 5.93226156,12.5811055 5.59555636,11.5854408 C5.94671243,11.6461344 6.31665462,11.6302384 6.65046965,11.5594292 C5.55364884,11.1923772 4.77041185,10.5146315 4.72994942,9.09411127 C5.03775289,9.23428468 5.35856214,9.36578757 5.78486272,9.39179913 C4.96405347,8.92503613 4.35711705,7.21838873 5.05220376,6.08977601 C6.27041185,7.42503613 7.73572977,8.5146315 10.1417991,8.66203035 C9.53775289,6.0796604 12.9597182,4.67937139 14.3917991,6.41492052 C14.9972905,6.2978685 15.490065,6.06809971 15.9640535,5.81809971 C15.7689668,6.41781069 15.3932442,6.83688584 14.9351517,7.17214595 C15.4380419,7.10422688 15.8831286,6.98139451 16.2631864,6.79353324 C16.0276373,7.28341763 15.5117413,7.72272399 15.0680997,8.09266618 Z" id="Shape"></path>
            </g>
        </g>
    </g>
</svg>