<?xml version="1.0" encoding="UTF-8"?>
<svg width="144px" height="32px" viewBox="0 0 144 32" version="1.1" xmlns="http://www.w3.org/2000/svg" xmlns:xlink="http://www.w3.org/1999/xlink">
    <title>wlab-logo</title>
    <g id="Page-1" stroke="none" stroke-width="1" fill="none" fill-rule="evenodd">
        <g id="Desktop-HD-Copy" transform="translate(-936.000000, -357.000000)" fill="#FFFFFF">
            <g id="wlab-logo" transform="translate(936.000000, 357.000000)">
                <path d="M134.75,0 C139.25,0 142.866202,4.37625706 142.866202,9.25 C142.866202,11.3797541 142.003522,13.4145102 140.656617,15.0306041 C142.532608,16.9210796 143.816202,19.5409624 143.816202,22.125 C143.816202,28.3685873 139.404864,32 133.75,32 L133.75,32 L120.375,31.999 L120.375,32 L113.625,32 L113.625,0 Z M120.375,25.374 L133.75,25.375 C136,25.375 137.381382,23.8345716 137.381382,22 C137.381382,20.1654284 136,18.5 133.75,18.5 L133.786,18.5 L120.375,18.5 L120.375,25.374 Z M120.375,12.249 L133.75,12.25 C135.875,12.25 136.893436,10.6613188 136.893436,9.25 C136.893436,7.83868119 135.75,6.25 133.75,6.25 L133.75,6.25 L120.375,6.25 L120.375,12.249 Z" id="Combined-Shape"></path>
                <polygon id="Path-2" points="94.5 0.25 78.5 32 86.25 32 94.5 15.25 102.75 32 110.5 32"></polygon>
                <polygon id="Path-3" points="51.375 0 51.375 32 74 32 74 25.125 58 25.125 58 0"></polygon>
                <polygon id="Path-4" points="0 0 15.625 31.5 23.625 15.625 31.625 31.5 47.25 0 39.75 0 31.625 16.25 23.625 0.375 15.625 16.25 7.5 0"></polygon>
            </g>
        </g>
    </g>
</svg>